<svg width="183" height="183" viewBox="0 0 183 183" fill="none" xmlns="http://www.w3.org/2000/svg">
<path d="M16 4H167C173.627 4 179 9.37258 179 16V167C179 173.627 173.627 179 167 179H16C9.37258 179 4 173.627 4 167V16L4.00391 15.6904C4.1655 9.30896 9.30896 4.1655 15.6904 4.00391L16 4Z" stroke="#8262AC" stroke-width="8" stroke-miterlimit="1.30541" stroke-linecap="round"/>
<path d="M58 25H101.667C103.855 25.0005 105.953 25.87 107.5 27.4173L138.083 58C139.63 59.5468 140.5 61.6449 140.5 63.8327V140.5C140.5 144.876 138.762 149.073 135.667 152.167C132.573 155.262 128.376 157 124 157H58C53.6239 157 49.4271 155.262 46.3327 152.167C43.2384 149.073 41.5 144.876 41.5 140.5V41.5C41.5 37.1239 43.2384 32.9271 46.3327 29.8327C49.4271 26.7384 53.6239 25 58 25ZM103.375 37.375V53.875C103.375 56.063 104.244 58.1615 105.791 59.7086C107.339 61.2558 109.437 62.125 111.625 62.125H128.125L103.375 37.375Z" fill="#8262AC"/>
</svg>
