<svg width="132" height="132" viewBox="0 0 132 132" fill="none" xmlns="http://www.w3.org/2000/svg">
<path d="M33 0H76.6673C78.8551 0.000467259 80.9532 0.869968 82.5 2.41725L113.083 33C114.63 34.5468 115.5 36.6449 115.5 38.8327V115.5C115.5 119.876 113.762 124.073 110.667 127.167C107.573 130.262 103.376 132 99 132H33C28.6239 132 24.4271 130.262 21.3327 127.167C18.2384 124.073 16.5 119.876 16.5 115.5V16.5C16.5 12.1239 18.2384 7.92709 21.3327 4.83274C24.4271 1.73839 28.6239 0 33 0ZM78.375 12.375V28.875C78.375 31.063 79.2442 33.1615 80.7914 34.7086C82.3385 36.2558 84.437 37.125 86.625 37.125H103.125L78.375 12.375Z" fill="#8262AC"/>
</svg>
