<svg width="183" height="183" viewBox="0 0 183 183" fill="none" xmlns="http://www.w3.org/2000/svg">
<path d="M16 4H167C173.627 4 179 9.37258 179 16V167C179 173.627 173.627 179 167 179H16C9.37258 179 4 173.627 4 167V16L4.00391 15.6904C4.1655 9.30896 9.30896 4.1655 15.6904 4.00391L16 4Z" stroke="#8262AC" stroke-width="8" stroke-miterlimit="1.30541" stroke-linecap="round"/>
<g clip-path="url(#clip0_194_21)">
<path d="M68.8281 62.8984C70.6668 66.316 72.5038 69.7336 74.2905 73.1787C75.3305 75.1783 76.3799 77.1724 77.4487 79.1567C77.5736 79.3915 77.6984 79.6262 77.8271 79.8681C78.9514 82.0817 78.9514 82.0817 80.8431 83.566C81.9348 83.8344 82.8899 83.8067 84.0058 83.746C84.2342 83.7359 84.4626 83.7258 84.6979 83.7154C85.4613 83.681 86.2245 83.6425 86.9878 83.604C87.5297 83.5789 88.0717 83.5541 88.6136 83.5296C90.4405 83.4458 92.2671 83.356 94.0938 83.2656C94.7878 83.2314 95.4818 83.1972 96.1758 83.163C96.3518 83.1543 96.5278 83.1457 96.7092 83.1367C97.6095 83.0924 98.5099 83.0482 99.4103 83.0043C99.589 82.9956 99.7678 82.9869 99.9519 82.9779C100.312 82.9604 100.672 82.9429 101.033 82.9254C101.912 82.8824 102.792 82.8388 103.672 82.7935C105.893 82.6794 108.114 82.578 110.336 82.4922C110.617 82.4801 110.898 82.4681 111.187 82.4557C111.967 82.4248 112.747 82.4038 113.527 82.3864C113.751 82.3766 113.976 82.3667 114.206 82.3565C116.101 82.3344 117.153 83.0749 118.548 84.286C118.741 84.4848 118.741 84.4848 118.938 84.6876C119.908 85.6394 120.961 86.4376 122.05 87.2456C123.724 88.5122 125.362 89.8174 126.98 91.1545C127.76 91.7962 128.544 92.4106 129.373 92.988C130.178 93.5714 130.559 93.9681 130.961 94.8672C130.961 95.1224 130.961 95.3777 130.961 95.6406C130.73 95.6539 130.498 95.6672 130.26 95.6809C127.466 95.9349 125.386 96.8461 122.969 98.2188C122.713 98.3619 122.457 98.5051 122.194 98.6525C120.197 99.7719 118.213 100.912 116.233 102.063C115.747 102.346 115.259 102.628 114.772 102.91C113.975 103.372 113.18 103.835 112.386 104.301C111.943 104.56 111.5 104.818 111.056 105.075C107.158 107.375 105.336 109.794 104.148 114.203C103.846 115.482 103.582 116.768 103.324 118.056C103.251 118.414 103.178 118.771 103.104 119.129C102.915 120.058 102.727 120.988 102.539 121.917C102.237 123.414 101.931 124.91 101.626 126.406C101.521 126.927 101.416 127.447 101.311 127.967C101.247 128.282 101.183 128.596 101.117 128.92C101.034 129.335 101.034 129.335 100.948 129.758C100.797 130.445 100.797 130.445 100.539 131.219C90.4148 131.219 80.2905 131.219 69.8594 131.219C68.6549 128.81 67.4715 126.433 66.398 123.969C64.6238 119.908 62.7864 115.879 60.9127 111.863C59.2294 108.253 57.5935 104.624 56.002 100.973C55.561 99.9638 55.108 98.9614 54.6484 97.9609C54.5276 97.6926 54.4067 97.4242 54.2822 97.1477C53.361 95.267 52.1722 94.2096 50.4751 93.0142C50.2351 92.838 49.9951 92.6618 49.7478 92.4802C48.741 91.7435 47.7224 91.0238 46.7026 90.3051C46.3207 90.0349 46.3207 90.0349 45.9312 89.7593C45.6096 89.5414 45.6096 89.5414 45.2816 89.3192C45.1397 89.1932 44.9978 89.0673 44.8516 88.9375C44.8516 88.1641 44.8516 88.1641 45.203 87.7844C45.3689 87.6491 45.5347 87.5139 45.7056 87.3745C45.8875 87.2191 46.0695 87.0636 46.2569 86.9035C46.9141 86.3594 46.9141 86.3594 47.5709 85.8979C50.2092 83.8666 50.9929 81.0872 52.0703 78.0449C52.3543 77.2684 52.6406 76.4928 52.9271 75.7172C53.1034 75.2376 53.2777 74.7573 53.4497 74.2762C54.8258 70.4447 56.7993 69.2107 60.3042 67.3296C60.6405 67.1472 60.9766 66.9646 61.3126 66.7817C61.811 66.5106 62.3095 66.2395 62.8085 65.9693C64.2783 65.1729 65.7336 64.3522 67.18 63.514C68.2571 62.8984 68.2571 62.8984 68.8281 62.8984Z" fill="#8262AC"/>
<path d="M134.967 103.767C135.297 103.834 135.627 103.9 135.967 103.969C136.662 104.11 137.357 104.253 138.051 104.396C138.937 104.58 139.823 104.759 140.71 104.937C141.562 105.109 142.414 105.284 143.265 105.459C143.582 105.522 143.898 105.586 144.223 105.652C147.897 106.417 147.897 106.417 149.045 107.511C149.73 108.603 150.226 109.749 150.732 110.932C150.849 111.203 150.967 111.474 151.088 111.753C151.433 112.551 151.775 113.35 152.117 114.15C152.382 114.773 152.649 115.395 152.915 116.018C153.899 118.319 154.881 120.622 155.858 122.926C155.986 123.228 155.986 123.228 156.117 123.536C156.873 125.321 157.203 126.7 157 128.641C156.434 129.773 155.739 130.689 154.506 131.107C153.678 131.261 152.882 131.25 152.04 131.25C151.758 131.25 151.758 131.25 151.47 131.25C150.839 131.251 150.208 131.249 149.577 131.248C149.124 131.248 148.672 131.248 148.22 131.248C146.992 131.248 145.763 131.247 144.535 131.245C143.252 131.243 141.968 131.243 140.685 131.243C138.254 131.242 135.824 131.24 133.393 131.237C130.626 131.234 127.859 131.233 125.092 131.232C119.4 131.229 113.708 131.224 108.016 131.219C108.363 129.504 108.712 127.79 109.06 126.076C109.179 125.495 109.297 124.914 109.414 124.333C109.698 122.937 109.983 121.541 110.273 120.146C110.477 119.166 110.671 118.185 110.854 117.201C110.935 116.789 111.016 116.377 111.097 115.966C111.144 115.694 111.144 115.694 111.191 115.418C111.542 113.699 112.517 112.607 113.912 111.614C114.167 111.474 114.422 111.334 114.685 111.189C114.974 111.027 115.263 110.865 115.561 110.698C115.871 110.529 116.181 110.36 116.491 110.191C116.813 110.012 117.134 109.833 117.455 109.654C117.947 109.379 118.439 109.104 118.932 108.831C120.814 107.786 122.666 106.69 124.518 105.594C125.201 105.192 125.888 104.797 126.578 104.406C126.908 104.215 126.908 104.215 127.244 104.019C127.459 103.9 127.675 103.782 127.897 103.66C128.084 103.555 128.272 103.45 128.464 103.342C130.578 102.655 132.862 103.331 134.967 103.767Z" fill="#8262AC"/>
<path d="M39.1384 93.8882C39.8299 94.1435 40.3083 94.5042 40.8896 94.9578C41.1189 95.135 41.3482 95.3121 41.5845 95.4946C41.8224 95.6811 42.0604 95.8675 42.3055 96.0596C42.7731 96.4233 43.2411 96.7865 43.7094 97.1492C43.9417 97.332 44.1739 97.5148 44.4132 97.7031C45.0898 98.2244 45.0898 98.2244 45.7902 98.6141C47.9873 99.9087 48.7096 101.818 49.6532 104.068C49.8282 104.469 50.0038 104.87 50.1802 105.271C50.5468 106.107 50.9093 106.944 51.2684 107.783C52.0486 109.602 52.8571 111.409 53.6633 113.217C53.9232 113.8 54.182 114.384 54.4405 114.969C55.7699 117.971 57.1446 120.95 58.5336 123.925C59.2504 125.461 59.9589 127 60.6586 128.544C60.7564 128.758 60.8543 128.972 60.9551 129.193C61.6093 130.643 61.6093 130.643 61.6093 131.219C57.2705 131.237 52.9318 131.25 48.5931 131.259C46.5784 131.263 44.5638 131.268 42.5492 131.277C40.7929 131.285 39.0366 131.29 37.2802 131.292C36.3506 131.293 35.421 131.295 34.4914 131.301C33.4526 131.307 32.4139 131.307 31.3751 131.307C31.0682 131.309 30.7613 131.312 30.4451 131.315C28.8612 131.309 27.675 131.242 26.2889 130.445C25.0766 129.137 24.8924 128.281 24.91 126.536C25.1011 124.433 25.7479 122.417 26.3171 120.391C26.4537 119.894 26.59 119.397 26.7259 118.9C27.0105 117.863 27.2976 116.826 27.5868 115.79C27.9553 114.47 28.3197 113.149 28.6824 111.827C29.0314 110.556 29.3821 109.286 29.7332 108.016C29.7989 107.777 29.8647 107.539 29.9325 107.294C32.0726 99.5564 32.0726 99.5564 34.2811 97.7031C34.4496 97.5533 34.6181 97.4034 34.7917 97.2489C35.1271 96.9511 35.4655 96.6566 35.8069 96.3657C36.1972 96.0259 36.5781 95.6752 36.9529 95.3184C37.156 95.127 37.359 94.9355 37.5682 94.7383C37.753 94.5602 37.9378 94.382 38.1282 94.1985C38.6639 93.836 38.6639 93.836 39.1384 93.8882Z" fill="#8262AC"/>
<path d="M93.0947 51.0713C94.9758 52.2981 95.8708 54.3552 96.9136 56.2759C97.0842 56.5871 97.2551 56.8983 97.4261 57.2093C97.7774 57.8483 98.1281 58.4877 98.4783 59.1273C99.2473 60.5292 100.03 61.9232 100.813 63.3174C101.108 63.8437 101.403 64.3701 101.698 64.8965C101.845 65.1583 101.992 65.4202 102.143 65.69C102.627 66.5532 103.11 67.4167 103.594 68.2803C103.757 68.5715 103.92 68.8628 104.087 69.1628C104.399 69.7188 104.71 70.2748 105.021 70.8308C105.162 71.0825 105.302 71.3342 105.448 71.5935C105.579 71.8286 105.71 72.0636 105.846 72.3058C106.168 72.8764 106.497 73.4417 106.829 74.0065C107.242 74.7578 107.242 74.7578 107.242 75.2734C102.894 75.5786 98.5445 75.8376 94.1905 76.0446C93.713 76.0673 93.2356 76.0903 92.7581 76.1137C89.8489 76.2552 86.952 76.3369 84.0391 76.3047C83.9225 76.0766 83.8059 75.8486 83.6858 75.6137C80.685 69.7409 80.685 69.7409 77.5537 63.9371C75.2734 59.8197 75.2734 59.8197 75.2734 59.0312C75.6994 58.7946 76.1254 58.5579 76.5514 58.3212C76.83 58.1664 77.1087 58.0116 77.3957 57.8521C78.0164 57.5073 78.6372 57.1626 79.2581 56.818C80.7453 55.9924 82.2321 55.166 83.7165 54.3355C84.3487 53.9818 84.9812 53.6287 85.6137 53.2756C86.0625 53.0248 86.511 52.7731 86.9594 52.5214C87.234 52.3682 87.5086 52.215 87.7914 52.0572C88.032 51.9225 88.2726 51.7878 88.5204 51.649C90.0971 50.8263 91.3519 50.4439 93.0947 51.0713Z" fill="#8262AC"/>
</g>
<defs>
<clipPath id="clip0_194_21">
<rect width="132" height="132" fill="white" transform="translate(25 25)"/>
</clipPath>
</defs>
</svg>
