<svg width="132" height="132" viewBox="0 0 132 132" fill="none" xmlns="http://www.w3.org/2000/svg">
<g clip-path="url(#clip0_179_114)">
<path d="M43.8281 37.8984C45.6668 41.316 47.5038 44.7336 49.2905 48.1787C50.3305 50.1783 51.3799 52.1724 52.4487 54.1567C52.5736 54.3915 52.6984 54.6262 52.8271 54.8681C53.9514 57.0817 53.9514 57.0817 55.8431 58.566C56.9348 58.8344 57.8899 58.8067 59.0058 58.746C59.2342 58.7359 59.4626 58.7258 59.6979 58.7154C60.4613 58.681 61.2245 58.6425 61.9878 58.604C62.5297 58.5789 63.0717 58.5541 63.6136 58.5296C65.4405 58.4458 67.2671 58.356 69.0938 58.2656C69.7878 58.2314 70.4818 58.1972 71.1758 58.163C71.3518 58.1543 71.5278 58.1457 71.7092 58.1367C72.6095 58.0924 73.5099 58.0482 74.4103 58.0043C74.589 57.9956 74.7678 57.9869 74.9519 57.9779C75.3122 57.9604 75.6725 57.9429 76.0327 57.9254C76.9124 57.8824 77.792 57.8388 78.6716 57.7935C80.8926 57.6794 83.1136 57.578 85.3359 57.4922C85.6169 57.4801 85.8979 57.4681 86.1874 57.4557C86.9674 57.4248 87.747 57.4038 88.5274 57.3864C88.7515 57.3766 88.9756 57.3667 89.2064 57.3565C91.1012 57.3344 92.153 58.0749 93.5475 59.286C93.741 59.4848 93.741 59.4848 93.9384 59.6876C94.9077 60.6394 95.9606 61.4376 97.0503 62.2456C98.7241 63.5122 100.362 64.8174 101.98 66.1545C102.76 66.7962 103.544 67.4106 104.373 67.988C105.178 68.5714 105.559 68.9681 105.961 69.8672C105.961 70.1224 105.961 70.3777 105.961 70.6406C105.73 70.6539 105.498 70.6672 105.26 70.6809C102.466 70.9349 100.386 71.8461 97.9688 73.2188C97.7131 73.3619 97.4575 73.5051 97.1941 73.6525C95.197 74.7719 93.2126 75.9121 91.2334 77.0629C90.7466 77.3457 90.2594 77.6279 89.7721 77.91C88.9754 78.3716 88.1801 78.8355 87.3858 79.3012C86.9432 79.5603 86.4997 79.8179 86.0562 80.0755C82.1579 82.3752 80.3363 84.7944 79.1484 89.2031C78.8461 90.4821 78.5815 91.7677 78.3236 93.0562C78.2507 93.4138 78.1777 93.7713 78.1045 94.1287C77.9146 95.058 77.7265 95.9877 77.539 96.9174C77.2368 98.4142 76.9315 99.9103 76.6264 101.406C76.5206 101.927 76.4155 102.447 76.3106 102.967C76.2469 103.282 76.1831 103.596 76.1174 103.92C76.0337 104.335 76.0337 104.335 75.9482 104.758C75.7969 105.445 75.7969 105.445 75.5391 106.219C65.4148 106.219 55.2905 106.219 44.8594 106.219C43.6549 103.81 42.4715 101.433 41.398 98.9688C39.6238 94.9078 37.7864 90.879 35.9127 86.863C34.2294 83.2529 32.5935 79.6241 31.002 75.9726C30.561 74.9638 30.108 73.9614 29.6484 72.9609C29.5276 72.6926 29.4067 72.4242 29.2822 72.1477C28.361 70.267 27.1722 69.2096 25.4751 68.0142C25.2351 67.838 24.9951 67.6618 24.7478 67.4802C23.741 66.7435 22.7224 66.0238 21.7026 65.3051C21.3207 65.0349 21.3207 65.0349 20.9312 64.7593C20.6096 64.5414 20.6096 64.5414 20.2816 64.3192C20.1397 64.1932 19.9978 64.0673 19.8516 63.9375C19.8516 63.1641 19.8516 63.1641 20.203 62.7844C20.3689 62.6491 20.5347 62.5139 20.7056 62.3745C20.8875 62.2191 21.0695 62.0636 21.2569 61.9035C21.9141 61.3594 21.9141 61.3594 22.5709 60.8979C25.2092 58.8666 25.9929 56.0872 27.0703 53.0449C27.3543 52.2684 27.6406 51.4928 27.9271 50.7172C28.1034 50.2376 28.2777 49.7573 28.4497 49.2762C29.8258 45.4447 31.7993 44.2107 35.3042 42.3296C35.6405 42.1472 35.9766 41.9646 36.3126 41.7817C36.811 41.5106 37.3095 41.2395 37.8085 40.9693C39.2783 40.1729 40.7336 39.3522 42.18 38.514C43.2571 37.8984 43.2571 37.8984 43.8281 37.8984Z" fill="#8262AC"/>
<path d="M109.967 78.7668C110.297 78.8336 110.627 78.9004 110.967 78.9693C111.662 79.1102 112.357 79.2528 113.051 79.3965C113.937 79.5797 114.823 79.7591 115.71 79.9373C116.562 80.1091 117.414 80.284 118.265 80.4586C118.582 80.5223 118.898 80.586 119.223 80.6516C122.897 81.4172 122.897 81.4172 124.045 82.5111C124.73 83.6027 125.226 84.7485 125.732 85.9321C125.849 86.203 125.967 86.4739 126.088 86.753C126.433 87.5512 126.775 88.3503 127.117 89.15C127.382 89.7728 127.649 90.3954 127.915 91.018C128.899 93.3195 129.881 95.6221 130.858 97.9265C130.986 98.2282 130.986 98.2282 131.117 98.536C131.873 100.321 132.203 101.7 132 103.641C131.434 104.773 130.739 105.689 129.506 106.107C128.678 106.261 127.882 106.25 127.04 106.25C126.758 106.25 126.758 106.25 126.47 106.25C125.839 106.251 125.208 106.249 124.577 106.248C124.124 106.248 123.672 106.248 123.22 106.248C121.992 106.248 120.763 106.247 119.535 106.245C118.252 106.243 116.968 106.243 115.685 106.243C113.254 106.242 110.824 106.24 108.393 106.237C105.626 106.234 102.859 106.233 100.092 106.232C94.3999 106.229 88.7078 106.224 83.0156 106.219C83.3633 104.504 83.7117 102.79 84.0605 101.076C84.1786 100.495 84.2966 99.9144 84.4145 99.3333C84.6977 97.937 84.983 96.5411 85.273 95.1462C85.4766 94.166 85.6706 93.185 85.8541 92.201C85.9351 91.7891 86.0161 91.3773 86.0973 90.9655C86.1438 90.6943 86.1438 90.6943 86.1912 90.4177C86.5419 88.6985 87.5167 87.6065 88.912 86.6144C89.1669 86.474 89.4218 86.3336 89.6845 86.1889C89.9737 86.027 90.2629 85.8651 90.5608 85.6983C90.8709 85.5291 91.1811 85.36 91.4912 85.1909C91.8126 85.0123 92.1339 84.8333 92.4549 84.6538C92.947 84.3788 93.4392 84.104 93.9322 83.8305C95.814 82.7856 97.6656 81.6905 99.5175 80.5935C100.201 80.1917 100.888 79.7972 101.578 79.4063C101.908 79.2145 101.908 79.2145 102.244 79.0189C102.459 78.9005 102.675 78.782 102.897 78.66C103.084 78.555 103.272 78.4501 103.464 78.342C105.578 77.6553 107.862 78.3308 109.967 78.7668Z" fill="#8262AC"/>
<path d="M14.1384 68.8882C14.8299 69.1435 15.3083 69.5042 15.8896 69.9578C16.1189 70.135 16.3482 70.3121 16.5845 70.4946C16.8224 70.6811 17.0604 70.8675 17.3055 71.0596C17.7731 71.4233 18.2411 71.7865 18.7094 72.1492C18.9417 72.332 19.1739 72.5148 19.4132 72.7031C20.0898 73.2244 20.0898 73.2244 20.7902 73.6141C22.9873 74.9087 23.7096 76.8176 24.6532 79.0679C24.8282 79.4692 25.0038 79.8702 25.1802 80.2709C25.5468 81.1065 25.9093 81.9437 26.2684 82.7825C27.0486 84.6019 27.8571 86.4086 28.6633 88.2166C28.9232 88.8003 29.182 89.3844 29.4405 89.9687C30.7699 92.9711 32.1446 95.9503 33.5336 98.9255C34.2504 100.461 34.9589 102 35.6586 103.544C35.7564 103.758 35.8543 103.972 35.9551 104.193C36.6093 105.643 36.6093 105.643 36.6093 106.219C32.2705 106.237 27.9318 106.25 23.5931 106.259C21.5784 106.263 19.5638 106.268 17.5492 106.277C15.7929 106.285 14.0366 106.29 12.2802 106.292C11.3506 106.293 10.421 106.295 9.4914 106.301C8.45263 106.307 7.41394 106.307 6.37514 106.307C6.06824 106.309 5.76133 106.312 5.44512 106.315C3.86116 106.309 2.67496 106.242 1.28895 105.445C0.0766359 104.137 -0.107649 103.281 -0.0899645 101.536C0.101051 99.4334 0.7479 97.4167 1.31715 95.3906C1.45372 94.8939 1.58997 94.3971 1.72591 93.9002C2.01052 92.8629 2.29762 91.8263 2.58682 90.7903C2.95531 89.4702 3.31968 88.1491 3.68244 86.8274C4.0314 85.5565 4.3821 84.286 4.73316 83.0156C4.79893 82.7774 4.86469 82.5391 4.93245 82.2936C7.07258 74.5564 7.07258 74.5564 9.28114 72.7031C9.44963 72.5533 9.61812 72.4034 9.79173 72.2489C10.1271 71.9511 10.4655 71.6566 10.8069 71.3657C11.1972 71.0259 11.5781 70.6752 11.9529 70.3184C12.156 70.127 12.359 69.9355 12.5682 69.7383C12.753 69.5602 12.9378 69.382 13.1282 69.1985C13.6639 68.836 13.6639 68.836 14.1384 68.8882Z" fill="#8262AC"/>
<path d="M68.0947 26.0713C69.9758 27.2981 70.8708 29.3552 71.9136 31.2759C72.0842 31.5871 72.2551 31.8983 72.4261 32.2093C72.7774 32.8483 73.1281 33.4877 73.4783 34.1273C74.2472 35.5292 75.0302 36.9232 75.813 38.3174C76.1081 38.8437 76.4032 39.3701 76.6982 39.8965C76.8451 40.1583 76.9919 40.4202 77.1432 40.69C77.627 41.5532 78.1103 42.4167 78.5935 43.2803C78.7565 43.5715 78.9195 43.8628 79.0874 44.1628C79.3986 44.7188 79.7096 45.2748 80.0206 45.8308C80.1615 46.0825 80.3024 46.3342 80.4476 46.5935C80.5789 46.8286 80.7103 47.0636 80.8456 47.3058C81.1677 47.8764 81.4973 48.4417 81.8293 49.0065C82.2422 49.7578 82.2422 49.7578 82.2422 50.2734C77.8939 50.5786 73.5445 50.8376 69.1905 51.0446C68.713 51.0673 68.2356 51.0903 67.7581 51.1137C64.8489 51.2552 61.952 51.3369 59.0391 51.3047C58.9225 51.0766 58.8059 50.8486 58.6858 50.6137C55.685 44.7409 55.685 44.7409 52.5537 38.9371C50.2734 34.8197 50.2734 34.8197 50.2734 34.0312C50.6994 33.7946 51.1254 33.5579 51.5514 33.3212C51.83 33.1664 52.1087 33.0116 52.3957 32.8521C53.0164 32.5073 53.6372 32.1626 54.2581 31.818C55.7453 30.9924 57.2321 30.166 58.7165 29.3355C59.3487 28.9818 59.9812 28.6287 60.6137 28.2756C61.0625 28.0248 61.511 27.7731 61.9594 27.5214C62.234 27.3682 62.5086 27.215 62.7914 27.0572C63.032 26.9225 63.2726 26.7878 63.5204 26.649C65.0971 25.8263 66.3519 25.4439 68.0947 26.0713Z" fill="#8262AC"/>
</g>
<defs>
<clipPath id="clip0_179_114">
<rect width="132" height="132" fill="white"/>
</clipPath>
</defs>
</svg>
