<svg width="132" height="132" viewBox="0 0 132 132" fill="none" xmlns="http://www.w3.org/2000/svg">
<path d="M23.0991 22.0001C17.6958 14.2209 22.4479 4.73443 30.6495 0L62.6993 54.7891L94.7491 0C102.951 4.73443 107.703 14.2209 102.3 22.0001L69.8273 66.9684L83.5202 90.3853C88.3721 87.914 93.9681 87.3297 99.2258 88.7455C104.484 90.1613 109.029 93.4766 111.984 98.0502C114.939 102.624 116.093 108.13 115.223 113.506C114.352 118.881 111.52 123.742 107.272 127.149C103.025 130.556 97.6654 132.268 92.2296 131.952C86.7937 131.636 81.6681 129.316 77.844 125.44C74.0199 121.564 71.7691 116.407 71.527 110.967C71.2848 105.528 73.0685 100.192 76.533 95.9909L62.6993 76.8244L48.8656 95.9821C52.3301 100.183 54.1138 105.519 53.8716 110.959C53.6294 116.398 51.3787 121.555 47.5546 125.431C43.7305 129.307 38.6049 131.627 33.169 131.943C27.7331 132.259 22.3733 130.548 18.1262 127.14C13.879 123.733 11.0463 118.872 10.176 113.497C9.30565 108.122 10.4595 102.615 13.4143 98.0414C16.3692 93.4678 20.9151 90.1526 26.1728 88.7367C31.4305 87.3209 37.0265 87.9052 41.8784 90.3765L55.5713 66.9684L23.0991 22.0001ZM45.0992 110.001C45.0992 106.5 43.7085 103.142 41.233 100.667C38.7575 98.1912 35.4 96.8005 31.8991 96.8005C28.3982 96.8005 25.0408 98.1912 22.5653 100.667C20.0898 103.142 18.699 106.5 18.699 110.001C18.699 113.501 20.0898 116.859 22.5653 119.334C25.0408 121.81 28.3982 123.201 31.8991 123.201C35.4 123.201 38.7575 121.81 41.233 119.334C43.7085 116.859 45.0992 113.501 45.0992 110.001ZM106.7 110.001C106.7 106.5 105.309 103.142 102.833 100.667C100.358 98.1912 97.0003 96.8005 93.4995 96.8005C89.9986 96.8005 86.6411 98.1912 84.1656 100.667C81.6901 103.142 80.2994 106.5 80.2994 110.001C80.2994 113.501 81.6901 116.859 84.1656 119.334C86.6411 121.81 89.9986 123.201 93.4995 123.201C97.0003 123.201 100.358 121.81 102.833 119.334C105.309 116.859 106.7 113.501 106.7 110.001Z" fill="#8262AC"/>
</svg>
