<svg width="183" height="183" viewBox="0 0 183 183" fill="none" xmlns="http://www.w3.org/2000/svg">
<path d="M16 4H167C173.627 4 179 9.37258 179 16V167C179 173.627 173.627 179 167 179H16C9.37258 179 4 173.627 4 167V16L4.00391 15.6904C4.1655 9.30896 9.30896 4.1655 15.6904 4.00391L16 4Z" stroke="#8262AC" stroke-width="8" stroke-miterlimit="1.30541" stroke-linecap="round"/>
<path d="M48.0991 47.0001C42.6958 39.2209 47.4479 29.7344 55.6495 25L87.6993 79.7891L119.749 25C127.951 29.7344 132.703 39.2209 127.3 47.0001L94.8273 91.9684L108.52 115.385C113.372 112.914 118.968 112.33 124.226 113.746C129.484 115.161 134.029 118.477 136.984 123.05C139.939 127.624 141.093 133.13 140.223 138.505C139.352 143.881 136.52 148.742 132.272 152.149C128.025 155.556 122.665 157.268 117.23 156.952C111.794 156.636 106.668 154.316 102.844 150.44C99.0199 146.564 96.7691 141.407 96.527 135.967C96.2848 130.528 98.0685 125.192 101.533 120.991L87.6993 101.824L73.8656 120.982C77.3301 125.183 79.1138 130.519 78.8716 135.959C78.6294 141.398 76.3787 146.555 72.5546 150.431C68.7305 154.307 63.6049 156.627 58.169 156.943C52.7331 157.259 47.3733 155.548 43.1262 152.14C38.879 148.733 36.0463 143.872 35.176 138.497C34.3056 133.122 35.4595 127.615 38.4143 123.041C41.3692 118.468 45.9151 115.153 51.1728 113.737C56.4305 112.321 62.0265 112.905 66.8784 115.376L80.5713 91.9684L48.0991 47.0001ZM70.0992 135.001C70.0992 131.5 68.7085 128.142 66.233 125.667C63.7575 123.191 60.4 121.801 56.8991 121.801C53.3982 121.801 50.0408 123.191 47.5653 125.667C45.0898 128.142 43.699 131.5 43.699 135.001C43.699 138.501 45.0898 141.859 47.5653 144.334C50.0408 146.81 53.3982 148.201 56.8991 148.201C60.4 148.201 63.7575 146.81 66.233 144.334C68.7085 141.859 70.0992 138.501 70.0992 135.001ZM131.7 135.001C131.7 131.5 130.309 128.142 127.833 125.667C125.358 123.191 122 121.801 118.499 121.801C114.999 121.801 111.641 123.191 109.166 125.667C106.69 128.142 105.299 131.5 105.299 135.001C105.299 138.501 106.69 141.859 109.166 144.334C111.641 146.81 114.999 148.201 118.499 148.201C122 148.201 125.358 146.81 127.833 144.334C130.309 141.859 131.7 138.501 131.7 135.001Z" fill="#8262AC"/>
</svg>
